<svg xmlns="http://www.w3.org/2000/svg" width="41" height="40" fill="none" viewBox="0 0 41 40"><g clip-path="url(#clip0_2457_2716)"><path fill="#7f3a6a" d="M20.518 0c-11.028 0-20 8.972-20 20 0 11.027 8.972 20 20 20 11.027 0 20-8.973 20-20 0-11.028-8.971-20-20-20m4.974 20.704h-3.254v11.598h-4.822V20.704h-2.292v-4.099h2.292v-2.651c0-1.899.903-4.866 4.866-4.866l3.573.014v3.979h-2.593c-.422 0-1.022.212-1.022 1.117v2.409h3.674Z"/></g><defs><clipPath id="clip0_2457_2716"><path fill="#fff" d="M.518 0h40v40h-40Z"/></clipPath></defs></svg>