<svg xmlns="http://www.w3.org/2000/svg" width="41" height="40" fill="none" viewBox="0 0 41 40"><g fill="#7f3a6a" clip-path="url(#clip0_2457_2724)"><path d="M20.518 23.16A3.16 3.16 0 1 0 20.518 16.84 3.16 3.16 0 0 0 20.518 23.16"/><path d="M24.56 12.013h-8.084a3.947 3.947 0 0 0-3.947 3.947v8.082a3.947 3.947 0 0 0 3.947 3.947h8.084a3.947 3.947 0 0 0 3.947-3.947v-8.084a3.947 3.947 0 0 0-3.947-3.945m-4.042 13.16A5.175 5.175 0 1 1 25.69 20a5.18 5.18 0 0 1-5.171 5.174m5.203-9.068a1.278 1.278 0 1 1-.005-2.557 1.278 1.278 0 0 1 .005 2.557"/><path d="M20.518 0A20 20 0 1 0 20.518 40 20 20 0 0 0 20.518 0m10 24.042A5.963 5.963 0 0 1 24.56 30h-8.084a5.966 5.966 0 0 1-5.958-5.958v-8.084A5.966 5.966 0 0 1 16.476 10h8.084a5.966 5.966 0 0 1 5.958 5.958Z"/></g><defs><clipPath id="clip0_2457_2724"><path fill="#fff" d="M.518 0h40v40h-40Z"/></clipPath></defs></svg>