<svg xmlns="http://www.w3.org/2000/svg" width="41" height="40" fill="none" viewBox="0 0 41 40"><g clip-path="url(#clip0_2457_2720)"><path fill="#7f3a6a" d="M35.064 0H5.973A5.455 5.455 0 0 0 .518 5.455v29.09A5.454 5.454 0 0 0 5.973 40h29.09a5.455 5.455 0 0 0 5.455-5.455V5.455A5.455 5.455 0 0 0 35.063 0m-20.91 31.655a.844.844 0 0 1-.843.846H9.718a.845.845 0 0 1-.845-.846V16.59a.845.845 0 0 1 .845-.845h3.593a.845.845 0 0 1 .843.845Zm-2.64-17.337A3.41 3.41 0 1 1 11.514 7.5 3.41 3.41 0 0 1 11.514 14.319m21.422 17.396a.774.774 0 0 1-.777.777h-3.864a.776.776 0 0 1-.777-.777v-7.057c0-1.055.31-4.618-2.757-4.618-2.375 0-2.859 2.438-2.954 3.534v8.15a.78.78 0 0 1-.766.777h-3.732a.774.774 0 0 1-.775-.777V16.525a.775.775 0 0 1 .775-.777h3.732a.777.777 0 0 1 .777.777v1.314c.882-1.325 2.189-2.343 4.977-2.343 6.178 0 6.137 5.768 6.137 8.936Z"/></g><defs><clipPath id="clip0_2457_2720"><path fill="#fff" d="M.518 0h40v40h-40Z"/></clipPath></defs></svg>