<svg xmlns="http://www.w3.org/2000/svg" width="146" height="36" fill="none" viewBox="0 0 146 36"><path fill="#803a6a" d="M135.658 35.7v-6.216l.966 2.499L130.051 21h4.389l4.746 7.959h-2.541L141.412 21h4.032l-6.552 10.983.924-2.499V35.7ZM122.331 27.447h6.783v3.213h-6.783Zm.294 8.253h-4.158V21h11.529v3.213h-7.371ZM111.351 35.7V21h4.158v14.7Z"/><path fill="#df286a" d="m99.277 32.445-.23-4.662 6.32-6.783h4.578l-6.3 6.825-2.31 2.415ZM95.56 35.7V21h4.116v14.7Zm9.87 0-4.788-6.069 2.709-2.898 6.909 8.967Z"/><path fill="#803a6a" d="M80.015 35.7V21h6.72q2.017 0 3.465.651 1.47.651 2.268 1.89.798 1.218.798 2.898 0 1.659-.798 2.877-.798 1.197-2.268 1.848-1.448.63-3.465.63h-4.41l1.848-1.743V35.7Zm9.093 0-3.654-5.355h4.431L93.56 35.7Zm-4.935-5.208-1.848-1.911h4.158q1.302 0 1.932-.567.651-.567.651-1.575 0-1.029-.65-1.596-.63-.567-1.933-.567h-4.158l1.848-1.911ZM61.742 35.7l6.49-14.7h4.095l6.51 14.7H74.51l-5.083-12.663h1.638L65.984 35.7Zm3.55-2.856 1.07-3.066h7.182l1.071 3.066Z"/><path fill="#eb8b27" d="M43.47 35.7V21h3.423l6.09 9.996h-1.806L57.1 21h3.423l.042 14.7h-3.822l-.042-8.883h.651l-4.43 7.434h-1.848l-4.558-7.434h.798V35.7Z"/><g clip-path="url(#clip0_2458_6599)"><path fill="url(#paint0_linear_2458_6599)" d="M28.674 14.099h5.475V36h-5.475Z"/><path fill="url(#paint1_linear_2458_6599)" d="M20.188 19.574h5.749V36h-5.749Z"/><path fill="url(#paint2_linear_2458_6599)" d="M11.974 25.049h5.749V36h-5.749Z"/><path fill="url(#paint3_linear_2458_6599)" d="M3.762 28.882h5.749V36H3.762Z"/><path fill="#803a6a" d="M29.495 12.593 25.8 9.582l3.696-5.065-1.78-1.369L35.93 0l-.959 8.897-1.779-1.505Z"/><path fill="#803a6a" d="M27.442 10.266C22.377 16.016 14.986 22.312.75 23.27c15.44 1.204 25.14-7.437 28.06-11.909Z"/></g><defs><linearGradient id="paint0_linear_2458_6599" x1="29.973" x2="35.731" y1="31.632" y2="30.279" gradientUnits="userSpaceOnUse"><stop stop-color="#df286a"/><stop offset="0" stop-color="#df286a"/><stop offset=".479" stop-color="#e3484d"/><stop offset=".479" stop-color="#e3484d"/><stop offset="1" stop-color="#e86a2d"/></linearGradient><linearGradient id="paint1_linear_2458_6599" x1="21.552" x2="27.309" y1="32.724" y2="30.83" gradientUnits="userSpaceOnUse"><stop stop-color="#df286a"/><stop offset="0" stop-color="#df286a"/><stop offset=".479" stop-color="#e3484d"/><stop offset=".479" stop-color="#e3484d"/><stop offset="1" stop-color="#e86a2d"/></linearGradient><linearGradient id="paint2_linear_2458_6599" x1="13.338" x2="18.469" y1="33.816" y2="31.284" gradientUnits="userSpaceOnUse"><stop stop-color="#df286a"/><stop offset="0" stop-color="#df286a"/><stop offset=".479" stop-color="#e3484d"/><stop offset=".479" stop-color="#e3484d"/><stop offset="1" stop-color="#e86a2d"/></linearGradient><linearGradient id="paint3_linear_2458_6599" x1="5.126" x2="9.173" y1="34.581" y2="31.508" gradientUnits="userSpaceOnUse"><stop stop-color="#df286a"/><stop offset="0" stop-color="#df286a"/><stop offset=".479" stop-color="#e3484d"/><stop offset=".479" stop-color="#e3484d"/><stop offset="1" stop-color="#e86a2d"/></linearGradient><clipPath id="clip0_2458_6599"><path fill="#fff" d="M0 0h36v36H0Z"/></clipPath></defs></svg>