<svg xmlns="http://www.w3.org/2000/svg" width="194" height="48" fill="none" viewBox="0 0 194 48"><path fill="#803a6a" d="M180.877 47.6v-8.288l1.288 3.332L173.401 28h5.852l6.328 10.612h-3.388L188.549 28h5.376l-8.736 14.644 1.232-3.332V47.6ZM163.108 36.596h9.044v4.284h-9.044ZM163.5 47.6h-5.544V28h15.372v4.284H163.5ZM148.468 47.6V28h5.544v19.6Z"/><path fill="#df286a" d="m132.369 43.26-.308-6.216L140.489 28h6.104l-8.4 9.1-3.08 3.22Zm-4.956 4.34V28h5.488v19.6Zm13.16 0-6.384-8.092 3.612-3.864 9.212 11.956Z"/><path fill="#803a6a" d="M106.687 47.6V28h8.96q2.688 0 4.62.868 1.959.869 3.024 2.52 1.064 1.624 1.064 3.864 0 2.212-1.064 3.836-1.065 1.596-3.024 2.464-1.932.84-4.62.84h-5.88l2.464-2.324V47.6Zm12.124 0-4.872-7.14h5.908l4.9 7.14Zm-6.58-6.944-2.464-2.548h5.544q1.736 0 2.576-.756.867-.756.868-2.1 0-1.372-.868-2.128-.84-.756-2.576-.756h-5.544l2.464-2.548ZM82.323 47.6 90.975 28h5.46l8.68 19.6h-5.768L92.57 30.716h2.184L87.979 47.6Zm4.732-3.808 1.428-4.088h9.576l1.428 4.088Z"/><path fill="#eb8b27" d="M57.96 47.6V28h4.564l8.12 13.328h-2.408L76.132 28h4.564l.056 19.6h-5.096L75.6 35.756h.868l-5.908 9.912h-2.464l-6.076-9.912h1.064V47.6Z"/><path fill="url(#paint0_linear_2458_3818)" d="M38.232 18.799h7.3V48h-7.3Z"/><path fill="url(#paint1_linear_2458_3818)" d="M26.916 26.099h7.665V48h-7.665Z"/><path fill="url(#paint2_linear_2458_3818)" d="M15.966 33.399h7.665V48h-7.665Z"/><path fill="url(#paint3_linear_2458_3818)" d="M5.015 38.51h7.665V48H5.015Z"/><path fill="#803a6a" d="m39.327 16.79-4.928-4.014 4.928-6.753-2.373-1.825L47.904 0l-1.277 11.863-2.373-2.007Z"/><path fill="#803a6a" d="M36.59 13.688C29.835 21.353 19.98 29.748 1 31.026c20.587 1.607 33.52-9.916 37.414-15.878Z"/><defs><linearGradient id="paint0_linear_2458_3818" x1="39.964" x2="47.642" y1="42.176" y2="40.372" gradientUnits="userSpaceOnUse"><stop stop-color="#df286a"/><stop offset="0" stop-color="#df286a"/><stop offset=".479" stop-color="#e3484d"/><stop offset=".479" stop-color="#e3484d"/><stop offset="1" stop-color="#e86a2d"/></linearGradient><linearGradient id="paint1_linear_2458_3818" x1="28.735" x2="36.411" y1="43.632" y2="41.107" gradientUnits="userSpaceOnUse"><stop stop-color="#df286a"/><stop offset="0" stop-color="#df286a"/><stop offset=".479" stop-color="#e3484d"/><stop offset=".479" stop-color="#e3484d"/><stop offset="1" stop-color="#e86a2d"/></linearGradient><linearGradient id="paint2_linear_2458_3818" x1="17.785" x2="24.625" y1="45.088" y2="41.712" gradientUnits="userSpaceOnUse"><stop stop-color="#df286a"/><stop offset="0" stop-color="#df286a"/><stop offset=".479" stop-color="#e3484d"/><stop offset=".479" stop-color="#e3484d"/><stop offset="1" stop-color="#e86a2d"/></linearGradient><linearGradient id="paint3_linear_2458_3818" x1="6.834" x2="12.23" y1="46.107" y2="42.01" gradientUnits="userSpaceOnUse"><stop stop-color="#df286a"/><stop offset="0" stop-color="#df286a"/><stop offset=".479" stop-color="#e3484d"/><stop offset=".479" stop-color="#e3484d"/><stop offset="1" stop-color="#e86a2d"/></linearGradient></defs></svg>