<svg xmlns="http://www.w3.org/2000/svg" width="193" height="23" fill="none" viewBox="0 0 193 23"><mask id="path-1-outside-1_1_2687" width="193" height="23" x=".618" y="-.536" fill="#000" maskUnits="userSpaceOnUse"><path fill="#fff" d="M.618-.536h193v23h-193Z"/><path d="M6.867 20.392 2.618 2.632H6.29L9.146 15.16l3.336-12.528h3.264l3.312 12.528 2.856-12.528h3.672l-4.247 17.76h-3.624l-3.6-12.528-3.624 12.528ZM31.246 20.512q-.576 0-1.32-.12a4 4 0 0 1-1.44-.48q-.672-.384-1.128-1.152-.432-.792-.432-2.16V6.688q0-1.176.36-1.968t.96-1.248 1.32-.648a5.5 5.5 0 0 1 1.416-.192q1.8 0 3.168.048 1.392.048 2.496.12 1.104.048 2.016.144V5.92h-6.624q-.744 0-1.152.36t-.408 1.104v2.568l7.032.192v2.808l-7.032.192v2.448q0 .624.192.984.216.336.552.48.36.12.744.12h6.696v2.976q-1.056.12-2.352.192-1.272.072-2.592.12-1.296.048-2.472.048M47.434 20.392V2.632h6.984q2.64 0 3.84 1.224 1.224 1.2 1.224 3.432 0 1.056-.312 1.872a3.4 3.4 0 0 1-.84 1.32 3 3 0 0 1-1.32.696 4.1 4.1 0 0 1 1.104.456q.552.312.984.84.456.528.696 1.296.264.744.264 1.728 0 1.8-.624 2.88-.6 1.08-1.8 1.56-1.176.456-2.904.456Zm3.552-3.192h3.648q.624 0 1.08-.24t.696-.744q.264-.504.264-1.344 0-.696-.264-1.176a1.9 1.9 0 0 0-.72-.744 2.07 2.07 0 0 0-1.056-.264h-3.648Zm0-7.248h3.456q.768 0 1.2-.552.456-.576.456-1.488.024-1.176-.48-1.632a1.76 1.76 0 0 0-1.224-.456h-3.408ZM69.177 20.512q-1.464 0-2.736-.24-1.272-.264-2.232-.888-.936-.648-1.464-1.776-.504-1.152-.504-2.928V2.632h3.552v12.024q0 .984.384 1.56.408.576 1.152.84.768.264 1.848.264 1.056 0 1.8-.264.768-.264 1.152-.84.408-.576.408-1.56V2.632h3.576V14.68q0 1.776-.528 2.928-.528 1.128-1.464 1.776-.936.624-2.208.888-1.248.24-2.736.24M83.158 20.392v-5.376L77.806 2.632h3.696l3.504 8.76 3.48-8.76h3.552L86.71 15.016v5.376ZM103.912 20.392V5.824H99.04V2.632h13.32v3.192h-4.896v14.568ZM114.278 20.392V2.632h7.344q1.056 0 1.968.264.912.24 1.608.864t1.08 1.728q.408 1.104.408 2.832 0 1.224-.24 2.088t-.648 1.416a3.4 3.4 0 0 1-.888.888 6 6 0 0 1-1.032.552l3.312 7.128h-3.624l-2.856-6.576h-.672a11 11 0 0 0-.744-.024h-.768q-.384 0-.696-.024v6.624Zm3.552-9.432h3.168q.48 0 .864-.12t.672-.408q.288-.312.432-.816.168-.504.168-1.296 0-.744-.168-1.224-.144-.504-.432-.768a1.4 1.4 0 0 0-.672-.384 2.9 2.9 0 0 0-.864-.12h-3.168ZM128.197 20.392l5.567-17.76h4.488l5.569 17.76h-3.696l-1.128-3.72h-6.048l-1.104 3.72Zm5.592-6.912h4.368l-2.185-7.8ZM145.286 20.392l-.001-13.704q0-1.176.36-1.968t.96-1.248 1.32-.648a5.5 5.5 0 0 1 1.416-.192q.864 0 2.136.024a55 55 0 0 1 5.544.288V5.92h-6.696q-.744 0-1.128.408-.36.384-.36 1.032v3.024l7.032.192.001 2.808-7.032.192v6.816Z"/><path d="M159.043 20.392V6.688q0-1.176.36-1.968t.96-1.248 1.32-.648a5.5 5.5 0 0 1 1.416-.192q.864 0 2.136.024a55 55 0 0 1 5.544.288V5.92h-6.696q-.744 0-1.128.408-.36.384-.36 1.032v3.024l7.032.192v2.808l-7.032.192v6.816Z"/><path d="m173.036 20.392-.001-17.76h3.552l.001 17.76Z"/><path d="M185.644 20.536q-1.56 0-2.76-.36a4.3 4.3 0 0 1-2.016-1.32q-.816-.96-1.248-2.736-.408-1.8-.408-4.656 0-2.76.432-4.512.456-1.776 1.296-2.736a4.4 4.4 0 0 1 2.04-1.368q1.2-.384 2.712-.384 1.2 0 2.232.144 1.056.12 1.896.312.84.168 1.416.384v2.76q-.432-.096-1.176-.192a21 21 0 0 0-1.656-.144 26 26 0 0 0-1.968-.072q-1.008 0-1.728.24a2.1 2.1 0 0 0-1.128.84q-.408.6-.624 1.752-.192 1.152-.192 3 0 1.776.168 2.928.192 1.152.6 1.8.408.624 1.104.888.72.24 1.8.24 1.824 0 2.952-.072a26 26 0 0 0 1.848-.168v2.736q-.648.216-1.488.384-.84.144-1.848.216-1.008.096-2.256.096"/></mask><path stroke="#fff" stroke-width="3" d="M6.867 20.392 2.618 2.632H6.29L9.146 15.16l3.336-12.528h3.264l3.312 12.528 2.856-12.528h3.672l-4.247 17.76h-3.624l-3.6-12.528-3.624 12.528Z" mask="url(#path-1-outside-1_1_2687)"/><path stroke="#fff" stroke-width="3" d="M31.246 20.512q-.576 0-1.32-.12a4 4 0 0 1-1.44-.48q-.672-.384-1.128-1.152-.432-.792-.432-2.16V6.688q0-1.176.36-1.968t.96-1.248 1.32-.648a5.5 5.5 0 0 1 1.416-.192q1.8 0 3.168.048 1.392.048 2.496.12 1.104.048 2.016.144V5.92h-6.624q-.744 0-1.152.36t-.408 1.104v2.568l7.032.192v2.808l-7.032.192v2.448q0 .624.192.984.216.336.552.48.36.12.744.12h6.696v2.976q-1.056.12-2.352.192-1.272.072-2.592.12-1.296.048-2.472.048Z" mask="url(#path-1-outside-1_1_2687)"/><path stroke="#fff" stroke-width="3" d="M47.434 20.392V2.632h6.984q2.64 0 3.84 1.224 1.224 1.2 1.224 3.432 0 1.056-.312 1.872a3.4 3.4 0 0 1-.84 1.32 3 3 0 0 1-1.32.696 4.1 4.1 0 0 1 1.104.456q.552.312.984.84.456.528.696 1.296.264.744.264 1.728 0 1.8-.624 2.88-.6 1.08-1.8 1.56-1.176.456-2.904.456Zm3.552-3.192h3.648q.624 0 1.08-.24t.696-.744q.264-.504.264-1.344 0-.696-.264-1.176a1.9 1.9 0 0 0-.72-.744 2.07 2.07 0 0 0-1.056-.264h-3.648Zm0-7.248h3.456q.768 0 1.2-.552.456-.576.456-1.488.024-1.176-.48-1.632a1.76 1.76 0 0 0-1.224-.456h-3.408Z" mask="url(#path-1-outside-1_1_2687)"/><path stroke="#fff" stroke-width="3" d="M69.177 20.512q-1.464 0-2.736-.24-1.272-.264-2.232-.888-.936-.648-1.464-1.776-.504-1.152-.504-2.928V2.632h3.552v12.024q0 .984.384 1.56.408.576 1.152.84.768.264 1.848.264 1.056 0 1.8-.264.768-.264 1.152-.84.408-.576.408-1.56V2.632h3.576V14.68q0 1.776-.528 2.928-.528 1.128-1.464 1.776-.936.624-2.208.888-1.248.24-2.736.24Z" mask="url(#path-1-outside-1_1_2687)"/><path stroke="#fff" stroke-width="3" d="M83.158 20.392v-5.376L77.806 2.632h3.696l3.504 8.76 3.48-8.76h3.552L86.71 15.016v5.376Z" mask="url(#path-1-outside-1_1_2687)"/><path stroke="#fff" stroke-width="3" d="M103.912 20.392V5.824H99.04V2.632h13.32v3.192h-4.896v14.568Z" mask="url(#path-1-outside-1_1_2687)"/><path stroke="#fff" stroke-width="3" d="M114.278 20.392V2.632h7.344q1.056 0 1.968.264.912.24 1.608.864t1.08 1.728q.408 1.104.408 2.832 0 1.224-.24 2.088t-.648 1.416a3.4 3.4 0 0 1-.888.888 6 6 0 0 1-1.032.552l3.312 7.128h-3.624l-2.856-6.576h-.672a11 11 0 0 0-.744-.024h-.768q-.384 0-.696-.024v6.624Zm3.552-9.432h3.168q.48 0 .864-.12t.672-.408q.288-.312.432-.816.168-.504.168-1.296 0-.744-.168-1.224-.144-.504-.432-.768a1.4 1.4 0 0 0-.672-.384 2.9 2.9 0 0 0-.864-.12h-3.168Z" mask="url(#path-1-outside-1_1_2687)"/><path stroke="#fff" stroke-width="3" d="m128.197 20.392 5.567-17.76h4.488l5.569 17.76h-3.696l-1.128-3.72h-6.048l-1.104 3.72Zm5.592-6.912h4.368l-2.185-7.8Z" mask="url(#path-1-outside-1_1_2687)"/><path stroke="#fff" stroke-width="3" d="m145.286 20.392-.001-13.704q0-1.176.36-1.968t.96-1.248 1.32-.648a5.5 5.5 0 0 1 1.416-.192q.864 0 2.136.024a55 55 0 0 1 5.544.288V5.92h-6.696q-.744 0-1.128.408-.36.384-.36 1.032v3.024l7.032.192.001 2.808-7.032.192v6.816Z" mask="url(#path-1-outside-1_1_2687)"/><path stroke="#fff" stroke-width="3" d="M159.043 20.392V6.688q0-1.176.36-1.968t.96-1.248 1.32-.648a5.5 5.5 0 0 1 1.416-.192q.864 0 2.136.024a55 55 0 0 1 5.544.288V5.92h-6.696q-.744 0-1.128.408-.36.384-.36 1.032v3.024l7.032.192v2.808l-7.032.192v6.816Z" mask="url(#path-1-outside-1_1_2687)"/><path stroke="#fff" stroke-width="3" d="m173.036 20.392-.001-17.76h3.552l.001 17.76Z" mask="url(#path-1-outside-1_1_2687)"/><path stroke="#fff" stroke-width="3" d="M185.644 20.536q-1.56 0-2.76-.36a4.3 4.3 0 0 1-2.016-1.32q-.816-.96-1.248-2.736-.408-1.8-.408-4.656 0-2.76.432-4.512.456-1.776 1.296-2.736a4.4 4.4 0 0 1 2.04-1.368q1.2-.384 2.712-.384 1.2 0 2.232.144 1.056.12 1.896.312.84.168 1.416.384v2.76q-.432-.096-1.176-.192a21 21 0 0 0-1.656-.144 26 26 0 0 0-1.968-.072q-1.008 0-1.728.24a2.1 2.1 0 0 0-1.128.84q-.408.6-.624 1.752-.192 1.152-.192 3 0 1.776.168 2.928.192 1.152.6 1.8.408.624 1.104.888.72.24 1.8.24 1.824 0 2.952-.072a26 26 0 0 0 1.848-.168v2.736q-.648.216-1.488.384-.84.144-1.848.216-1.008.096-2.256.096Z" mask="url(#path-1-outside-1_1_2687)"/></svg>